<svg width="181" height="173" viewBox="0 0 181 173" fill="none" xmlns="http://www.w3.org/2000/svg">
<g filter="url(#filter0_d_1_11)">
<path d="M42.509 142.702H10.425C7.11571 142.702 4.42371 139.991 4.42371 136.659V118.283C4.42371 100.574 14.6197 84.2808 30.3984 76.7728C31.1957 76.3941 31.4397 75.6995 31.513 75.3181C31.657 74.5835 31.4424 73.8355 30.9237 73.2675C25.065 66.8595 21.8397 58.5115 21.8397 49.7635C21.8397 40.2381 25.7584 31.0368 32.5904 24.5208C39.345 18.0781 48.1784 14.7715 57.4517 15.2101C71.8517 15.8915 84.6544 26.3141 88.5877 40.5555L80.877 42.6848C77.8517 31.7328 68.0637 23.7208 57.073 23.2008C50.013 22.8648 43.269 25.3901 38.1117 30.3101C32.7784 35.3981 29.8397 42.3075 29.8397 49.7635C29.8397 56.5088 32.321 62.9395 36.829 67.8701C39.0424 70.2941 39.9917 73.6515 39.365 76.8541C38.7464 80.0155 36.7317 82.6181 33.8357 83.9968C20.8277 90.1861 12.4237 103.645 12.4237 118.283V134.702H42.509V142.702Z" fill="#96559D"/>
<path d="M170.267 128.04H140.724C138.515 128.04 136.724 126.249 136.724 124.04C136.724 121.831 138.515 120.04 140.724 120.04H168.27V103.621C168.27 88.98 159.863 75.52 146.852 69.3334C143.947 67.952 141.927 65.3387 141.31 62.1627C140.688 58.976 141.632 55.6427 143.832 53.244C148.572 48.0747 151.063 41.32 150.84 34.224C150.406 20.4574 139.539 9.17605 126.098 8.54005C119.027 8.20938 112.292 10.7294 107.135 15.6494C101.8 20.736 98.8629 27.6454 98.8629 35.1014C98.8629 36.5894 98.9842 38.08 99.2229 39.5334C99.5802 41.712 98.1042 43.7694 95.9242 44.128C93.7349 44.484 91.6856 43.0094 91.3283 40.8307C91.0189 38.9507 90.8629 37.0227 90.8629 35.1014C90.8629 25.576 94.7816 16.376 101.614 9.86004C108.368 3.41604 117.22 0.113376 126.475 0.548042C144.059 1.38004 158.272 16.0614 158.835 33.9734C159.124 43.1707 155.89 51.9347 149.728 58.652C149.019 59.4254 149.096 60.296 149.162 60.6347C149.238 61.0214 149.483 61.7254 150.29 62.1094C166.072 69.6147 176.27 85.9094 176.27 103.621V121.999C176.27 125.329 173.576 128.04 170.267 128.04Z" fill="#96559D"/>
<path d="M89.9211 164.689H44.5105C41.2012 164.689 38.5092 161.98 38.5092 158.648V140.27C38.5092 122.561 48.7052 106.268 64.4838 98.7596C65.2812 98.381 65.5252 97.6863 65.5998 97.305C65.7438 96.5703 65.5292 95.8223 65.0092 95.2543C59.1518 88.8476 55.9252 80.4996 55.9252 71.7503C55.9252 62.225 59.8438 53.025 66.6758 46.509C73.4318 40.065 82.2625 36.7583 91.5372 37.197C109.121 38.029 123.336 52.7103 123.898 70.6223C124.188 79.8183 120.953 88.5823 114.79 95.301C114.082 96.073 114.16 96.945 114.225 97.2836C114.301 97.669 114.546 98.3743 115.352 98.757C117.646 99.849 119.868 101.149 121.954 102.622C123.758 103.897 124.189 106.392 122.914 108.197C121.642 110 119.144 110.433 117.34 109.157C115.625 107.946 113.801 106.878 111.917 105.981C109.012 104.601 106.99 101.988 106.373 98.813C105.753 95.6263 106.696 92.2916 108.894 89.893C113.637 84.7236 116.126 77.969 115.904 70.873C115.47 57.1063 104.601 45.825 91.1598 45.189C84.0985 44.8583 77.3558 47.3783 72.1985 52.2983C66.8638 57.385 63.9252 64.2943 63.9252 71.7503C63.9252 78.497 66.4078 84.9276 70.9145 89.857C73.1291 92.281 74.0771 95.6383 73.4505 98.841C72.8331 102.002 70.8172 104.605 67.9212 105.984C54.9145 112.173 46.5092 125.63 46.5092 140.27V156.689H89.9211C92.1305 156.689 93.9211 158.48 93.9211 160.689C93.9211 162.898 92.1305 164.689 89.9211 164.689Z" fill="#7DC9CE"/>
<path d="M114.022 160.505C111.813 160.505 110.022 158.715 110.022 156.505V120.897C110.022 118.689 111.813 116.897 114.022 116.897C116.231 116.897 118.022 118.689 118.022 120.897V156.505C118.022 158.715 116.231 160.505 114.022 160.505Z" fill="#7DC9CE"/>
<path d="M130.833 142.702H97.2106C95.0013 142.702 93.2106 140.911 93.2106 138.702C93.2106 136.493 95.0013 134.702 97.2106 134.702H130.833C133.043 134.702 134.833 136.493 134.833 138.702C134.833 140.911 133.043 142.702 130.833 142.702Z" fill="#7DC9CE"/>
</g>
<defs>
<filter id="filter0_d_1_11" x="0.423706" y="0.51001" width="179.846" height="172.179" filterUnits="userSpaceOnUse" color-interpolation-filters="sRGB">
<feFlood flood-opacity="0" result="BackgroundImageFix"/>
<feColorMatrix in="SourceAlpha" type="matrix" values="0 0 0 0 0 0 0 0 0 0 0 0 0 0 0 0 0 0 127 0" result="hardAlpha"/>
<feOffset dy="4"/>
<feGaussianBlur stdDeviation="2"/>
<feComposite in2="hardAlpha" operator="out"/>
<feColorMatrix type="matrix" values="0 0 0 0 0 0 0 0 0 0 0 0 0 0 0 0 0 0 0.25 0"/>
<feBlend mode="normal" in2="BackgroundImageFix" result="effect1_dropShadow_1_11"/>
<feBlend mode="normal" in="SourceGraphic" in2="effect1_dropShadow_1_11" result="shape"/>
</filter>
</defs>
</svg>
